<svg width="56" height="56" viewBox="0 0 56 56" fill="none" xmlns="http://www.w3.org/2000/svg">
<circle cx="28" cy="28" r="28" fill="#EC422B"/>
<path d="M23.3245 37.4264C21.658 38.7501 21.2855 41.2197 22.1481 43.0965C23.0892 45.1314 25.3831 45.9612 27.4418 45.25C29.5004 44.5585 30.9709 42.5631 30.5395 40.3306C30.1082 38.0586 27.8927 36.2213 25.5596 36.4781C24.3244 36.6164 24.3048 38.5921 25.5596 38.4538C26.9712 38.2957 28.3829 39.2638 28.6377 40.7258C28.873 42.0297 27.8927 43.0768 26.7163 43.4126C23.8931 44.2226 22.6579 40.4492 24.7165 38.8094C25.6968 38.0389 24.3048 36.6559 23.3245 37.4264Z" fill="white"/>
<path d="M26.5209 31.7364C25.9327 28.1605 25.7562 24.5253 26.0111 20.9099C26.1288 19.2503 26.2856 17.5513 26.6189 15.9115C26.7758 15.141 26.9718 14.4693 27.7365 14.1532C28.3442 13.8963 29.0501 13.8963 29.6775 13.8963C30.3049 13.8766 31.0695 13.8371 31.6381 14.1334C32.2851 14.489 32.3439 15.1805 32.3243 15.8522C32.2851 17.413 31.8929 18.954 31.4028 20.416C30.3637 23.5572 28.6187 26.4022 26.9326 29.2076C26.2856 30.2942 27.9717 31.282 28.6187 30.1954C30.2656 27.4888 31.8733 24.7426 33.0105 21.7594C33.5595 20.2974 33.9516 18.7959 34.1673 17.2549C34.3437 15.9708 34.4613 14.5285 33.7163 13.4024C33.0105 12.3356 31.7557 11.9997 30.5401 11.9207C29.2853 11.8614 27.8541 11.9009 26.7365 12.4541C25.5014 13.0666 24.9524 14.2322 24.6975 15.5361C24.3838 17.1759 24.1878 18.8552 24.0701 20.5147C23.776 24.4463 23.9917 28.358 24.6387 32.2501C24.8348 33.5145 26.7169 32.981 26.5209 31.7364Z" fill="white"/>
</svg>
