<svg viewBox="0 0 56 56" fill="none" xmlns="http://www.w3.org/2000/svg">
<circle cx="28" cy="28" r="28" fill="#EC422B"/>
<path d="M24.7646 40.6C26.3168 40.6 26.3168 38.1863 24.7646 38.1863C23.2123 38.1863 23.2123 40.6 24.7646 40.6Z" fill="white"/>
<path d="M23.4309 20.4939C23.2127 20.3249 25.7835 18.756 26.0988 18.6353C27.263 18.1767 28.5484 17.9595 29.7853 17.8871C31.4831 17.7905 36.2125 18.5629 34.1024 21.1456C30.8282 25.1523 25.5167 27.035 23.7947 32.2969C23.3097 33.7692 25.6623 34.4209 26.1231 32.9486C27.3115 29.3763 30.804 27.3488 33.5446 25.0558C34.7815 24.0179 36.358 22.7145 36.9158 21.1697C37.4737 19.6008 36.6976 17.9595 35.4849 16.9458C33.011 14.9182 29.0335 15.1838 26.1473 16.0527C24.5466 16.5354 22.9701 17.3319 21.8545 18.6112C21.0056 19.6008 20.5205 21.2421 21.709 22.2076C22.9216 23.1731 24.6436 21.4594 23.4309 20.4939Z" fill="white"/>
</svg>
