<svg width="134" height="36" viewBox="0 0 134 36" fill="none" xmlns="http://www.w3.org/2000/svg">
<path d="M40.1182 16.4792C38.1421 14.3409 35.4788 14.2554 34.6196 14.2554C28.6056 14.2554 26.8014 18.9597 26.8014 22.6376C26.8014 27.5984 29.9802 30.5065 34.5337 30.5065C37.0252 30.5065 39.0013 29.5657 40.29 28.3682C41.0632 27.5984 41.5787 26.9142 42.0942 26.0589L38.6576 24.3482C38.1421 25.4601 37.283 26.9997 34.7915 26.9997C32.3858 26.9997 31.269 25.118 31.269 23.2363H42.1801C42.266 21.6112 42.0942 18.6175 40.1182 16.4792ZM31.4408 20.4992C31.6126 19.815 31.6985 19.1307 32.3858 18.4465C32.8154 18.0188 33.5886 17.4201 34.7055 17.4201C35.4788 17.4201 36.3379 17.6767 36.9393 18.2754C37.6266 18.9597 37.7126 19.815 37.7985 20.4137H31.4408V20.4992Z" fill="#EC422B"/>
<path d="M48.854 14.7116H44.4777V29.9364H49.0256V21.3831C49.0256 19.4159 49.7121 19.1593 51.8573 18.7316L53.3161 18.475V14.5405C50.9992 14.7971 49.8837 15.4814 48.854 16.2512V14.7116Z" fill="#EC422B"/>
<path d="M66.9313 15.1294C66.1566 14.7088 65.1238 14.5405 64.177 14.5405C63.0581 14.5405 62.1113 14.7929 61.4228 15.0453C60.6481 15.3818 60.3039 15.8025 59.8735 16.2231V14.877H55.3118V29.8522H59.8735V21.7757C59.8735 19.9249 59.8735 18.074 62.2835 18.074C63.1442 18.074 63.9188 18.4105 64.3492 19.2518C64.5213 19.6725 64.5213 20.1773 64.5213 21.5233V29.9364H68.997V19.5883C68.997 17.3168 68.5666 15.9707 66.9313 15.1294Z" fill="#EC422B"/>
<path d="M84.4448 18.5866C84.4448 14.68 79.8658 14.2554 77.9651 14.2554C76.1507 14.2554 74.3364 14.5101 72.9541 15.6142C71.5717 16.7182 71.3989 17.9072 71.3125 19.0112H75.8916C75.9779 18.5017 76.2371 17.2278 78.3107 17.2278C79.9522 17.2278 79.9522 18.4167 80.0386 19.0961V19.9454C78.1379 20.2851 75.2004 20.7947 73.9908 21.3042C72.6949 21.8138 70.7078 23.2575 70.7078 25.6354C70.7078 27.7586 72.1765 30.2214 75.7188 30.2214C77.9651 30.2214 79.261 29.2873 80.4706 28.438V29.7968H84.9632C84.6176 29.2872 84.5312 29.0325 84.5312 27.4189V18.5866H84.4448ZM78.397 26.4847C77.9651 26.7395 77.3603 26.9943 76.8419 26.9943C75.8052 26.9943 75.114 26.145 75.114 25.4656C75.114 24.2766 76.3235 23.852 77.1011 23.5972L80.0386 22.663C79.9522 24.1068 79.8658 25.5505 78.397 26.4847Z" fill="#EC422B"/>
<path d="M92.4831 10.5491H87.8501V15.1852H85.5336V17.8826H87.8501V25.1317C87.8501 26.5647 87.8501 27.6605 88.4738 28.5035C89.4539 29.8521 91.2358 29.9364 92.8395 29.9364C93.7305 29.9364 94.2651 29.8521 95.3342 29.6836V26.2276L93.6414 26.3118C92.3941 26.3118 92.394 25.5532 92.394 24.626V17.8826H95.5124V15.1852H92.4831V10.5491Z" fill="#EC422B"/>
<path d="M102.069 9.12354H97.2221V13.1151H102.069V9.12354Z" fill="#EC422B"/>
<path d="M102.069 15.1108H97.2221V29.9365H102.069V15.1108Z" fill="#EC422B"/>
<path d="M112.707 18.7756C111.772 22.2738 111.687 22.6069 111.092 25.9385C110.581 23.1067 110.241 21.774 108.456 15.1108H103.779L108.711 29.9365H113.387L118.319 15.1108H113.728L112.707 18.7756Z" fill="#EC422B"/>
<path d="M126.508 27.0852C124.069 27.0852 122.936 25.2035 122.936 23.3218H134C133.913 21.6112 133.826 18.6175 131.822 16.4792C129.818 14.3409 127.118 14.2554 126.247 14.2554C120.148 14.2554 118.319 18.9597 118.319 22.6376C118.319 27.5984 121.542 30.5065 126.16 30.5065C128.686 30.5065 130.69 29.5657 131.996 28.3682C132.78 27.5984 133.303 26.9142 133.826 26.0589L130.341 24.3482C129.906 25.4601 129.034 27.0852 126.508 27.0852ZM123.982 18.4465C124.417 18.0188 125.201 17.4201 126.334 17.4201C127.118 17.4201 127.989 17.6767 128.599 18.2754C129.296 18.9597 129.383 19.815 129.47 20.4137H123.11C123.198 19.815 123.372 19.1307 123.982 18.4465Z" fill="#EC422B"/>
<path d="M25.9454 29.9881V28.5107C25.5252 28.8995 24.79 29.5216 23.9496 30.2214C24.4748 30.1436 25.1051 30.0659 25.9454 29.9881Z" fill="#C94330"/>
<path d="M18.532 23.0003V25.173C18.532 26.5936 18.532 27.68 19.2399 28.5156C20.0362 29.602 21.1865 29.8527 22.4252 29.9363C23.841 28.5156 24.9027 27.3457 25.2567 26.9279C25.6106 26.5936 25.7876 26.9279 26.053 26.9279V26.3429L24.3718 26.4265C23.1331 26.4265 23.1331 25.6744 23.1331 24.7552V18.0699H26.23V15.3958H24.1949C22.9561 17.3178 21.6289 19.2398 21.0095 20.0755C20.3902 20.5769 19.5053 21.7468 18.532 23.0003Z" fill="#EC422B"/>
<path d="M22.3717 13.3828L22.5232 13.1299V10.2639H20.6299C20.024 11.5283 19.3424 12.9613 18.8123 14.31C18.7366 14.4786 18.6608 14.6471 18.5851 14.8157V14.9C18.2065 15.743 17.9035 16.6702 17.6763 17.5974H18.6608V19.9576C19.191 19.1147 20.0998 17.5974 21.3115 15.3215C21.6144 14.8157 21.993 14.1414 22.3717 13.3828Z" fill="#EC422B"/>
<path d="M12.0499 27.8435C12.0499 27.8435 12.3081 25.8902 12.7384 24.0218C12.9106 23.2575 13.2548 22.0685 13.6852 20.7097V18.5866C13.6852 14.68 9.12346 14.2554 7.22992 14.2554C5.42244 14.2554 3.61496 14.5101 2.23783 15.6142C0.860704 16.7182 0.688563 17.9072 0.602493 19.0112H5.16423C5.2503 18.5017 5.50851 17.2278 7.5742 17.2278C9.20954 17.2278 9.20954 18.4167 9.29561 19.0961V19.9454C7.40206 20.2851 4.47566 20.7947 3.27068 21.3042C1.97962 21.8138 0 23.1726 0 25.6354C0 27.7586 1.4632 30.2214 4.99208 30.2214C7.22992 30.2214 8.52097 29.2873 9.72596 28.438V29.7968H10.2424C10.3285 29.7119 10.4145 29.627 10.5006 29.4571C11.2752 28.6928 11.8777 28.0983 12.0499 27.8435ZM7.66027 26.4847C7.22992 26.7395 6.62742 26.9943 6.111 26.9943C5.07816 26.9943 4.38959 26.145 4.38959 25.4656C4.38959 24.2766 5.59458 23.852 6.36921 23.5972L9.29561 22.663C9.20954 24.1068 9.20953 25.5505 7.66027 26.4847Z" fill="#EC422B"/>
<path d="M22.0711 30.2326C21.8132 30.491 21.6413 30.6632 21.3835 30.9216C19.6644 32.73 18.8909 32.9883 18.2892 33.1606C17.6875 33.3328 16.914 33.4189 16.2263 32.73C15.4528 32.1272 15.023 30.5771 14.9371 29.5437C14.8511 28.5103 15.023 26.9602 15.023 26.9602C15.5387 26.4435 16.2263 25.5824 16.914 24.7212C17.4297 24.1184 17.8594 23.5156 18.3751 22.9128V20.1571C18.2892 20.3293 18.2032 20.4154 18.1173 20.5016C17.8594 20.9321 17.4297 21.4488 16.914 22.0516C16.2263 22.9989 15.5387 23.8601 15.5387 23.8601C15.5387 23.8601 16.0544 21.3627 16.914 18.6931C16.9999 18.3487 17.0859 18.0042 17.2578 17.7459H16.1404V14.9902H18.2892V14.904V10.2538H20.6099C21.6413 8.27313 22.6727 6.55081 23.3604 5.43131C24.5637 3.45065 25.5951 2.15891 25.5951 2.15891C25.5951 2.15891 25.9389 2.24503 26.1108 2.76172C26.3687 3.36453 26.2827 4.22569 26.1108 5.17296C25.9389 6.12023 25.1654 9.30651 22.8447 13.0956V14.9902H23.7901C23.962 14.6457 24.1339 14.3873 24.3918 14.0429C24.8215 13.354 25.2513 12.665 25.5951 11.9761C27.1423 9.39263 28.1737 6.72304 28.6894 4.65627C29.2051 2.6756 29.1192 1.5561 28.9472 1.12552C28.7753 0.95329 28.4315 0.0921325 27.658 0.00601681C26.8844 -0.0800989 25.853 0.781058 25.3373 1.12552C24.8215 1.46998 23.6182 2.33114 22.5008 3.79511C21.3835 5.25908 18.2892 9.99544 16.4842 13.7845C15.5387 15.7652 14.6792 18.0903 14.0775 20.071C13.9916 20.3293 13.9056 20.5877 13.8197 20.9321V27.7353C13.8197 29.3715 13.9056 29.6298 14.2494 30.1465H10.3816C9.17827 31.5244 7.54518 33.1606 6.34185 34.2801C5.82614 34.7107 5.91209 34.7107 6.34185 34.6245C6.59971 34.6245 6.85757 34.5384 7.28733 34.6245C7.71709 34.6245 7.88899 34.5384 8.2328 34.2801C8.92042 33.8495 9.52208 33.1606 10.0378 32.6439C10.7254 31.8688 12.1866 30.3188 12.1866 30.3188C12.1866 30.3188 12.1006 32.1272 12.8742 33.3328C13.4759 34.2801 13.9916 34.8829 15.7966 35.0551C18.0313 35.2273 20.2661 33.6773 21.8132 32.5578C22.5868 31.955 23.4463 31.1799 24.2199 30.3188C23.962 30.3188 23.7901 30.3188 23.4463 30.3188C22.8447 30.2326 22.5008 30.2326 22.0711 30.2326Z" fill="#2C4488"/>
<path d="M26.1353 28.1502C26.5806 27.2483 26.8987 26.617 26.7714 26.5269C26.6442 26.4367 26.3897 26.8876 26.1353 27.1581L26.0716 27.2483H25.9444V28.5109L26.0716 28.2403L26.1353 28.1502Z" fill="#2C4488"/>
<path d="M18.5314 15.3958H16.2505V17.9617H17.4366C17.7103 17.0797 18.0752 16.1976 18.5314 15.3958Z" fill="#5C2D3E"/>
<path d="M25.3623 26.8003C25.2649 26.8003 25.1676 26.8003 25.0702 26.9654C24.6808 27.2955 23.5126 28.4509 21.9549 29.9365C22.3443 29.9365 22.8311 29.9365 23.2205 29.9365C23.5126 29.9365 23.8046 29.9365 24.0967 29.9365C24.8755 29.2762 25.557 28.616 25.9464 28.1208V26.9654C25.8491 26.9654 25.7517 26.9654 25.6543 26.8828C25.557 26.8828 25.4596 26.8828 25.3623 26.8003C25.4596 26.8003 25.3623 26.8003 25.3623 26.8003Z" fill="#5C2D3E"/>
<path d="M25.0702 27.0635C24.6808 27.4144 23.5126 28.6425 21.9549 30.2216C23.5126 28.6425 24.6808 27.4144 25.0702 27.0635ZM25.6543 26.888C25.7517 26.888 25.8491 26.9757 25.9464 26.9757C25.8491 26.9757 25.7517 26.9757 25.6543 26.888ZM25.3623 26.8003C25.2649 26.8003 25.1676 26.8003 25.0702 26.9757C25.1676 26.888 25.2649 26.888 25.3623 26.8003ZM25.3623 26.8003C25.3623 26.8003 25.4596 26.8003 25.3623 26.8003C25.4596 26.8003 25.3623 26.8003 25.3623 26.8003Z" fill="black"/>
<path d="M22.7679 13.4001L22.605 13.6605C22.1163 14.4414 21.709 15.1356 21.3831 15.8298C19.9983 18.0858 19.1023 19.6477 18.532 20.6022V23.3789C19.4281 22.0774 20.3242 20.8625 20.7315 20.2551C21.3831 19.3874 22.5236 17.3917 23.664 15.3959H22.7679V13.4001Z" fill="#5C2D3E"/>
<path d="M20.8129 10.5491H18.532V15.3959C18.6165 15.2164 18.701 15.0369 18.7855 14.8574C19.4613 13.3315 20.1371 11.8954 20.8129 10.5491Z" fill="#5C2D3E"/>
<path d="M13.5136 20.813C13.1334 22.2625 12.8293 23.4562 12.6773 24.1384C12.2971 26.0142 12.069 27.8901 12.069 27.8901C11.917 28.1459 11.3848 28.7427 10.7765 29.5954C10.7005 29.6807 10.6245 29.7659 10.5485 29.9365H13.9698C13.6656 29.4249 13.5896 29.1691 13.5896 27.549V20.813H13.5136Z" fill="#5C2D3E"/>
</svg>
