<svg width="37" height="79" viewBox="0 0 37 79" fill="none" xmlns="http://www.w3.org/2000/svg">
<path d="M3.69997 78.7C5.41206 78.7 6.79998 77.3121 6.79998 75.6C6.79998 73.8879 5.41206 72.5 3.69997 72.5C1.98789 72.5 0.599976 73.8879 0.599976 75.6C0.599976 77.3121 1.98789 78.7 3.69997 78.7Z" fill="#DDD4E5"/>
<path d="M15.2 66.8C16.9121 66.8 18.3 65.4121 18.3 63.7C18.3 61.9879 16.9121 60.6 15.2 60.6C13.4879 60.6 12.1 61.9879 12.1 63.7C12.1 65.4121 13.4879 66.8 15.2 66.8Z" fill="#DDD4E5"/>
<path d="M24.5 53.4C26.212 53.4 27.6 52.0121 27.6 50.3C27.6 48.5879 26.212 47.2 24.5 47.2C22.7879 47.2 21.4 48.5879 21.4 50.3C21.4 52.0121 22.7879 53.4 24.5 53.4Z" fill="#DDD4E5"/>
<path d="M31.4 38.6C33.1121 38.6 34.5 37.2121 34.5 35.5C34.5 33.7879 33.1121 32.4 31.4 32.4C29.6879 32.4 28.3 33.7879 28.3 35.5C28.3 37.2121 29.6879 38.6 31.4 38.6Z" fill="#DDD4E5"/>
<path d="M33.7 22.3C35.4121 22.3 36.8 20.9121 36.8 19.2C36.8 17.4879 35.4121 16.1 33.7 16.1C31.9879 16.1 30.6 17.4879 30.6 19.2C30.6 20.9121 31.9879 22.3 33.7 22.3Z" fill="#DDD4E5"/>
<path d="M30.4 6.2C32.1121 6.2 33.5 4.81208 33.5 3.1C33.5 1.38792 32.1121 0 30.4 0C28.6879 0 27.3 1.38792 27.3 3.1C27.3 4.81208 28.6879 6.2 30.4 6.2Z" fill="#DDD4E5"/>
</svg>
