<svg width="46" height="45" viewBox="0 0 46 45" fill="none" xmlns="http://www.w3.org/2000/svg">
<g clip-path="url(#clip0)">
<path d="M3.83333 14.8666C10.583 4.02839 21.7234 -0.574151 32.7157 1.31027C35.683 1.80186 38.7176 2.9489 41.0105 5.32491C43.9104 8.27444 45.394 12.9446 45.8661 17.5327C46.4055 23.1859 45.3266 29.2489 42.4267 33.6732C39.3246 38.3433 34.5366 40.8832 29.816 42.5218C26.7138 43.5869 23.4768 44.3244 20.3072 44.7339C14.575 45.4714 8.30329 44.8978 4.05472 40.1458C1.35721 37.1143 -0.126416 32.6901 0.00845923 28.3476C0.143335 24.0053 1.45497 18.6856 3.83333 14.8666Z" fill="#5674DE"/>
<path d="M21.0111 34.5341H25.67V22.8649H28.9401L29.2984 18.9455H25.67C25.67 18.9455 25.67 17.4758 25.67 16.7186C25.67 15.7832 25.8491 15.4269 26.745 15.4269C27.4618 15.4269 29.2984 15.4269 29.2984 15.4269V11.4185C29.2984 11.4185 26.6107 11.4185 26.073 11.4185C22.579 11.4185 21.0111 12.9328 21.0111 15.8724C21.0111 18.4111 21.0111 18.9901 21.0111 18.9901H18.592V22.954H21.0111V34.5341Z" fill="white"/>
</g>
<defs>
<clipPath id="clip0">
<rect width="46" height="44.101" fill="white" transform="translate(0 0.898926)"/>
</clipPath>
</defs>
</svg>
