<svg width="21" height="20" viewBox="0 0 21 20" fill="none" xmlns="http://www.w3.org/2000/svg">
<path d="M2.64283 2.88321C5.79744 -0.14289 9.57231 -0.332022 10.9952 0.282656C13.0558 1.15739 15.4083 0.424504 17.3229 1.77207C19.2374 3.11963 20.7515 5.57836 20.9702 8.39169C21.2073 11.2996 20.0037 14.2075 18.2709 16.0751C16.5387 17.9428 14.3321 18.9594 12.1256 19.5268C10.2838 19.9996 8.3871 20.2124 6.54524 19.7159C3.75531 18.9357 1.25683 16.3115 0.345121 12.789C-0.566587 9.26641 0.363559 5.03458 2.71556 2.9305" fill="#DBDBDB"/>
<path d="M10 5.89363C11.3405 5.89363 11.4895 5.89363 12.0216 5.91489C12.5105 5.93616 12.7658 6.02126 12.9574 6.08511C13.1916 6.17021 13.3616 6.27658 13.5321 6.46811C13.7021 6.63832 13.8084 6.80853 13.9147 7.04258C13.9789 7.21279 14.0637 7.48937 14.0853 7.97874C14.1063 8.51063 14.1063 8.65958 14.1063 10C14.1063 11.3404 14.1063 11.4894 14.0853 12.0213C14.0637 12.5106 13.9789 12.766 13.9147 12.9575C13.83 13.1915 13.7232 13.3617 13.5321 13.5319C13.3616 13.7022 13.1916 13.8085 12.9574 13.9149C12.7874 13.9787 12.5105 14.0638 12.0216 14.0851C11.4895 14.1064 11.3405 14.1064 10 14.1064C8.65947 14.1064 8.51053 14.1064 7.97895 14.0851C7.48948 14.0638 7.23421 13.9787 7.04263 13.9149C6.80842 13.8298 6.63842 13.7234 6.4679 13.5319C6.2979 13.3617 6.19158 13.1915 6.08526 12.9575C6.02105 12.7872 5.93632 12.5106 5.91474 12.0213C5.89368 11.4894 5.89368 11.3404 5.89368 10C5.89368 8.65958 5.89368 8.51063 5.91474 7.97874C5.93632 7.48937 6.02105 7.23405 6.08526 7.04258C6.17 6.80853 6.27684 6.63832 6.4679 6.46811C6.63842 6.29789 6.80842 6.19147 7.04263 6.08511C7.21263 6.02126 7.48948 5.93616 7.97895 5.91489C8.51053 5.91489 8.65947 5.89363 10 5.89363ZM10 5C8.63842 5 8.4679 5 7.93632 5.02126C7.40421 5.04258 7.04263 5.12768 6.72316 5.25532C6.40421 5.383 6.1279 5.55321 5.83 5.82979C5.55316 6.12768 5.38316 6.40426 5.25526 6.72342C5.1279 7.04258 5.04263 7.40426 5.02105 7.93616C5 8.46811 5 8.63832 5 10C5 11.3617 5 11.5319 5.02105 12.0638C5.04263 12.5958 5.1279 12.9575 5.25526 13.2766C5.38316 13.5958 5.55316 13.8936 5.83 14.1702C6.10632 14.4468 6.38316 14.617 6.72316 14.7447C7.04263 14.8724 7.40421 14.9575 7.93632 14.9787C8.4679 15 8.63842 15 10 15C11.3616 15 11.5321 15 12.0637 14.9787C12.5958 14.9575 12.9574 14.8724 13.2768 14.7447C13.5958 14.617 13.8937 14.4468 14.17 14.1702C14.4468 13.8936 14.6168 13.617 14.7447 13.2766C14.8721 12.9575 14.9574 12.5958 14.979 12.0638C15 11.5319 15 11.3617 15 10C15 8.63832 15 8.46811 14.979 7.93616C14.9574 7.40426 14.8721 7.04258 14.7447 6.72342C14.6168 6.40426 14.4468 6.10637 14.17 5.82979C13.8937 5.55321 13.6168 5.383 13.2768 5.25532C12.9574 5.12768 12.5958 5.04258 12.0637 5.02126C11.5321 5 11.3616 5 10 5Z" fill="white"/>
<path d="M10.0003 7C8.33886 7 7 8.33885 7 10C7 11.6611 8.33886 13 10.0003 13C11.6612 13 13 11.6611 13 10C13 8.33885 11.6612 7 10.0003 7ZM10.0003 11.9587C8.93438 11.9587 8.06654 11.0909 8.06654 10.0248C8.06654 8.95866 8.93438 8.09089 10.0003 8.09089C11.0662 8.09089 11.9341 8.95866 11.9341 10.0248C11.9341 11.0909 11.0662 11.9587 10.0003 11.9587Z" fill="white"/>
<path d="M13.3536 7.3545C13.3536 7.63993 13.1212 7.854 12.8536 7.854C12.5678 7.854 12.3536 7.62206 12.3536 7.3545C12.3536 7.06903 12.5855 6.85496 12.8536 6.85496C13.1212 6.83714 13.3536 7.06903 13.3536 7.3545Z" fill="white"/>
</svg>
