<svg width="11" height="15" viewBox="0 0 11 15" fill="none" xmlns="http://www.w3.org/2000/svg">
<path fill-rule="evenodd" clip-rule="evenodd" d="M5.5 0C8.53692 0 11 1.88664 11 5.56608C11 7.1491 10.5409 8.60376 9.79053 9.74824H9.79936L9.75522 9.80172C9.52568 10.1333 9.26966 10.4435 8.99599 10.7216L6.27523 14.0513C5.87482 14.5413 5.12568 14.5409 4.72581 14.0504L1.2183 9.74824C0.459069 8.60376 0 7.1491 0 5.56608C0 1.88664 2.46308 0 5.5 0ZM5.5 8C6.88071 8 8 6.88071 8 5.5C8 4.11929 6.88071 3 5.5 3C4.11929 3 3 4.11929 3 5.5C3 6.88071 4.11929 8 5.5 8Z" fill="#FBAC37"/>
</svg>
