<svg width="22" height="20" viewBox="0 0 22 20" fill="none" xmlns="http://www.w3.org/2000/svg">
<path d="M1.05757 6.49383C3.72402 2.62477 7.99039 0.184274 12.3901 0.00570088C15.1899 -0.0835877 18.2297 0.868803 19.9362 3.36883C21.2695 5.30335 21.5895 7.83313 21.8561 10.2439C22.0428 11.9999 22.1761 13.9046 21.4028 15.482C20.4962 17.3273 18.523 18.1904 16.7098 18.7857C14.3633 19.5594 11.9101 20.125 9.48362 19.9761C7.05712 19.8273 4.5773 18.8452 2.87078 16.8808C1.37751 15.1844 0.5776 12.8927 0.0976338 10.6308C-0.169038 9.41053 0.0976336 7.88675 1.05757 6.49383Z" fill="#DBDBDB"/>
<path d="M5 13.9838C6.10046 14.6371 7.38428 15 8.77292 15C13.3319 15 15.8995 11.4436 15.7686 8.25C16.2402 7.93548 16.6594 7.52418 17 7.06454C16.5546 7.23385 16.083 7.37901 15.5851 7.4274C16.083 7.13707 16.476 6.70163 16.6594 6.16936C16.1878 6.43549 15.6637 6.62905 15.0873 6.72582C14.6419 6.29033 14.0131 6 13.3057 6C11.7074 6 10.5546 7.35482 10.9214 8.78227C8.85152 8.70969 7.04366 7.81451 5.83844 6.43549C5.18342 7.45159 5.49782 8.78227 6.59828 9.45965C6.20522 9.45965 5.81222 9.33874 5.49782 9.16938C5.4716 10.2097 6.28382 11.2016 7.46288 11.4194C7.12226 11.5162 6.72926 11.5162 6.36242 11.4678C6.67688 12.3629 7.59386 13.0161 8.6681 13.0403C7.59386 13.7903 6.31004 14.129 5 13.9838Z" fill="white"/>
</svg>
