<svg width="22" height="20" viewBox="0 0 22 20" fill="none" xmlns="http://www.w3.org/2000/svg">
<path d="M0.977911 7.60536C3.73629 2.34461 9.31793 -0.714814 14.6075 0.143319C16.0354 0.367179 17.4957 0.889522 18.599 1.97151C19.9945 3.31468 20.7084 5.44138 20.9355 7.53074C21.1951 10.1051 21.4638 13.4558 20.0684 15.4705C18.5756 17.5972 16.2716 18.7538 14 19.5C12.5072 19.985 10.1617 19.7312 8.63645 19.9177C5.87808 20.2535 3.9956 19.589 1.95116 17.425C0.653098 16.0446 -0.0608323 14.0298 0.00407064 12.0524C0.0689738 10.075 -0.157891 8.53811 1.20507 7.34417" fill="#DBDBDB"/>
<path d="M9.35565 17H11.9666V10.9422H13.7992L14 8.90752H11.9666C11.9666 8.90752 11.9666 8.14453 11.9666 7.75144C11.9666 7.26588 12.067 7.08091 12.569 7.08091C12.9707 7.08091 14 7.08091 14 7.08091V5C14 5 12.4937 5 12.1924 5C10.2343 5 9.35565 5.78613 9.35565 7.31217C9.35565 8.63009 9.35565 8.93067 9.35565 8.93067H8V10.9884H9.35565V17Z" fill="white"/>
</svg>
