<svg width="46" height="43" viewBox="0 0 46 43" fill="none" xmlns="http://www.w3.org/2000/svg">
<path d="M5.8435 6.19891C12.6034 -0.307214 20.6924 -0.713847 23.7414 0.60771C28.1569 2.48839 33.198 0.912684 37.3007 3.80994C41.4034 6.7072 44.6478 11.9935 45.1164 18.0421C45.6246 24.2941 43.0453 30.5461 39.3323 34.5615C35.6203 38.5771 30.892 40.7627 26.1637 41.9825C22.2169 42.9992 18.1526 43.4567 14.2058 42.3892C8.2274 40.7118 2.8735 35.0698 0.919843 27.4963C-1.03382 19.9228 0.959353 10.8244 5.99935 6.30057" fill="#F54EA8"/>
<path fill-rule="evenodd" clip-rule="evenodd" d="M26.6787 13.3618C25.6262 13.3195 25.3315 13.3195 22.6799 13.3195C21.0529 13.3195 20.3133 13.3354 19.7417 13.3477C19.3818 13.3555 19.0885 13.3618 18.6822 13.3618C17.714 13.4042 17.1664 13.5737 16.8301 13.7009C16.3668 13.9128 16.0306 14.1249 15.6932 14.464C15.3153 14.8031 15.104 15.1422 14.9364 15.6085C14.8094 15.99 14.6418 16.4986 14.5991 17.4736C14.5574 18.5333 14.5574 18.8301 14.5574 21.5006C14.5574 24.1711 14.5574 24.4679 14.5991 25.5276C14.6418 26.5025 14.8094 27.0536 14.9364 27.3928C15.1467 27.8591 15.357 28.1982 15.6932 28.5373C16.0306 28.9188 16.3668 29.1307 16.8301 29.3003L16.8304 29.3004C17.2093 29.4276 17.7143 29.597 18.6822 29.6394C19.7337 29.6817 20.0283 29.6817 22.6799 29.6817C25.3315 29.6817 25.6262 29.6817 26.6787 29.6394C27.6459 29.597 28.1935 29.4275 28.5297 29.3003C28.993 29.0884 29.3293 28.8764 29.6666 28.5373C30.0445 28.1982 30.2559 27.8591 30.4235 27.3928C30.5505 27.0113 30.7181 26.5025 30.7608 25.5276C30.8024 24.4679 30.8024 24.1711 30.8024 21.5006C30.8024 18.8301 30.8024 18.5333 30.7608 17.4736C30.7181 16.4986 30.5505 15.9476 30.4235 15.6085C30.2132 15.1422 30.0029 14.8031 29.6666 14.464C29.3293 14.0824 28.993 13.8705 28.5297 13.7009L28.5294 13.7008C28.1505 13.5736 27.6456 13.4042 26.6787 13.3618ZM18.5979 11.5814C19.6493 11.5391 19.9866 11.5391 22.6799 11.5391C25.3732 11.5391 25.7105 11.5391 26.762 11.5814C27.8145 11.6239 28.5297 11.7934 29.1617 12.0477C29.8342 12.3021 30.3818 12.6412 30.9284 13.1923C31.476 13.7433 31.8123 14.3368 32.0652 14.9726C32.3172 15.6085 32.4858 16.3291 32.5285 17.3888C32.5702 18.4484 32.5702 18.7876 32.5702 21.4992V21.5006V21.502C32.5702 24.2136 32.5702 24.5529 32.5285 25.6124C32.4858 26.6722 32.3172 27.3928 32.0652 28.0285C31.8123 28.7068 31.476 29.2579 30.9284 29.8089C30.3818 30.36 29.7926 30.6991 29.1617 30.9535C28.5297 31.2079 27.8145 31.3774 26.762 31.4198C25.7105 31.4621 25.3732 31.4621 22.6803 31.4621H22.6799H22.6796C19.9866 31.4621 19.6493 31.4621 18.5979 31.4198C17.5453 31.3774 16.8301 31.2079 16.1982 30.9535C15.5256 30.6991 14.978 30.36 14.4315 29.8089C13.8839 29.2579 13.5476 28.6645 13.2946 28.0285C13.0427 27.3928 12.874 26.6722 12.8313 25.6124C12.7897 24.5527 12.7897 24.2135 12.7897 21.5006C12.7897 18.7877 12.7897 18.4486 12.8313 17.3888C12.874 16.3291 13.0427 15.6085 13.2946 14.9726C13.5476 14.3368 13.8839 13.7858 14.4315 13.1923C15.0207 12.6412 15.5673 12.3021 16.1982 12.0477C16.8301 11.7934 17.5453 11.6239 18.5979 11.5814ZM17.5877 21.5005C17.5877 18.6604 19.8604 16.3714 22.6797 16.3714C25.4999 16.3714 27.7726 18.6604 27.7726 21.5005C27.7726 24.3406 25.4999 26.6296 22.6797 26.6296C19.8604 26.6296 17.5877 24.3406 17.5877 21.5005ZM19.3971 21.5429C19.3971 23.3656 20.8703 24.8492 22.6797 24.8492C24.4891 24.8492 25.9622 23.3656 25.9622 21.5429C25.9622 19.7201 24.4891 18.2365 22.6797 18.2365C20.8703 18.2365 19.3971 19.7201 19.3971 21.5429Z" fill="white"/>
</svg>
