<svg width="34" height="73" viewBox="0 0 34 73" fill="none" xmlns="http://www.w3.org/2000/svg">
<path d="M8.89979 71.3C6.76645 71.7667 4.56645 72.2 2.29979 72.6C3.63312 66.6 4.93312 60.6 6.19979 54.6C6.73312 52.0667 7.26645 49.4 7.79979 46.6C8.39979 43.7333 8.96645 40.9 9.49979 38.1C10.0998 35.2333 10.6665 32.4 11.1998 29.6C11.7331 26.8 12.1998 24.1667 12.5998 21.7C10.9998 21.8333 9.43312 22.0333 7.89979 22.3C6.63312 22.5 5.29979 22.7333 3.89979 23C2.56645 23.2 1.43312 23.3667 0.499788 23.5C0.633121 22.5667 0.833121 21.1667 1.09979 19.3C1.36645 17.3667 1.66645 15.4 1.99979 13.4C2.26645 11.1333 2.59979 8.66666 2.99979 6C4.53312 5.66667 6.66645 5.23333 9.39979 4.7C11.7331 4.3 14.8331 3.8 18.6998 3.2C22.5665 2.6 27.3665 1.83333 33.0998 0.899998C31.6998 6.76667 30.3998 12.4667 29.1998 18C28.0665 23.5333 26.9665 29.0667 25.8998 34.6C24.8998 40.1333 23.8998 45.7333 22.8998 51.4C21.9665 57 21.0331 62.7667 20.0998 68.7C18.5665 69.1667 16.7998 69.6333 14.7998 70.1C12.7998 70.5667 10.8331 70.9667 8.89979 71.3Z" fill="#FBAC37"/>
</svg>
