<svg width="65" height="65" viewBox="0 0 65 65" fill="none" xmlns="http://www.w3.org/2000/svg">
<g clip-path="url(#clip0)">
<path d="M11.3957 44.3877C0.296962 42.8326 16.5989 30.0073 32.2068 33.3345C47.8147 36.6617 45.3927 53.7318 33.8856 56.5944C20.1716 60.2447 29.1358 46.8829 11.3957 44.3877Z" fill="#EC422B"/>
<path d="M62.4178 44.3613C60.4079 48.7777 51.3975 51.5548 49.019 46.0122C46.6405 40.4697 47.068 39.2438 49.0779 34.8274C51.0878 30.411 55.7137 28.9616 59.4053 31.5955C63.0969 34.2294 64.4277 39.9449 62.4178 44.3613Z" fill="#EC422B"/>
<path d="M56.3527 19.4909C56.1286 24.7027 51.4489 32.238 46.1657 28.681C40.8825 25.1241 38.5286 25.1398 38.7527 19.928C38.9769 14.7162 43.5396 10.601 48.9398 10.7378C54.34 10.8746 56.5866 14.2628 56.3527 19.4909Z" fill="#EC422B"/>
<path d="M36.8737 13.8869C37.5673 18.8044 34.0669 26.9076 28.0192 24.7739C21.9714 22.6403 19.5514 23.191 18.8676 18.2572C18.1741 13.3398 22.1493 8.45612 27.7221 7.37025C33.3074 6.29177 36.2023 8.96057 36.8737 13.8869Z" fill="#EC422B"/>
<path d="M16.8072 22.5326C18.665 25.6677 17.5148 32.7149 11.5127 33.7005C5.51061 34.686 3.44106 36.0632 1.59575 32.9355C-0.24956 29.8078 2.11054 24.8042 6.89022 21.7676C11.6699 18.731 14.9494 19.3975 16.8072 22.5326Z" fill="#EC422B"/>
</g>
<defs>
<clipPath id="clip0">
<rect width="66.7732" height="54.9545" fill="white" transform="translate(9.45453 -3.54541) rotate(16.5356)"/>
</clipPath>
</defs>
</svg>
