<svg width="47" height="42" viewBox="0 0 47 42" fill="none" xmlns="http://www.w3.org/2000/svg">
<path d="M2.25935 13.637C7.95586 5.51201 17.0704 0.386975 26.4697 0.0119718C32.4511 -0.175534 38.9453 1.82449 42.591 7.07454C45.4394 11.137 46.123 16.4496 46.6926 21.5122C47.0914 25.1997 47.3762 29.1997 45.7242 32.5123C43.7873 36.3873 39.5718 38.1999 35.6982 39.4499C30.6853 41.0748 25.4443 42.2624 20.2605 41.9499C15.0766 41.6374 9.77878 39.5749 6.13304 35.4498C2.94286 31.8873 1.23396 27.0748 0.208581 22.3247C-0.361126 19.7621 0.208581 16.5622 2.25935 13.637Z" fill="#5FC5FF"/>
<path d="M14.2856 29.2411C16.194 30.5633 18.4203 31.2979 20.8284 31.2979C28.7342 31.2979 33.1868 24.0996 32.9597 17.6357C33.7775 16.9991 34.5045 16.1666 35.0952 15.2363C34.3227 15.579 33.5049 15.8728 32.6416 15.9708C33.5049 15.3831 34.1864 14.5018 34.5045 13.4245C33.6867 13.9631 32.7779 14.3549 31.7783 14.5507C31.006 13.6693 29.9155 13.0817 28.6887 13.0817C25.9171 13.0817 23.918 15.8238 24.5541 18.713C20.9647 18.5661 17.8296 16.7543 15.7396 13.9631C14.6037 16.0197 15.1489 18.713 17.0573 20.0841C16.3757 20.0841 15.6941 19.8393 15.1489 19.4966C15.1035 21.6021 16.5119 23.6099 18.5566 24.0506C17.9659 24.2465 17.2844 24.2465 16.6483 24.1485C17.1936 25.9603 18.7837 27.2825 20.6466 27.3314C18.7837 28.8495 16.5574 29.535 14.2856 29.2411Z" fill="white"/>
</svg>
